<?xml version="1.0" standalone="no"?>
<!DOCTYPE svg PUBLIC "-//W3C//DTD SVG 20010904//EN"
 "http://www.w3.org/TR/2001/REC-SVG-20010904/DTD/svg10.dtd">
<svg version="1.0" xmlns="http://www.w3.org/2000/svg"
 width="1024.000000pt" height="1024.000000pt" viewBox="0 0 1024.000000 1024.000000"
 preserveAspectRatio="xMidYMid meet">

<g transform="translate(0.000000,1024.000000) scale(0.100000,-0.100000)"
fill="#000000" stroke="none">
<path d="M3117 8988 c-16 -12 -17 -101 -17 -1228 0 -668 -3 -1261 -7 -1317
l-6 -103 -33 0 c-85 0 -90 -14 -124 -358 -41 -410 -40 -390 -18 -417 21 -27
81 -42 171 -44 38 -1 34 -18 -19 -68 -63 -61 -127 -195 -132 -279 -4 -51 0
-72 23 -122 l27 -61 -19 -28 c-23 -33 -65 -110 -153 -278 -34 -66 -66 -124
-71 -129 -4 -5 -42 60 -84 144 -188 374 -296 537 -427 641 l-48 37 37 13 c59
19 148 115 188 202 48 104 72 198 94 377 42 328 38 531 -15 742 -25 99 -26
102 -9 155 31 97 -2 193 -93 275 -171 154 -537 218 -792 137 -342 -108 -558
-429 -518 -767 4 -37 12 -116 17 -177 12 -157 51 -241 141 -307 l41 -31 -6
-81 c-4 -44 -11 -117 -16 -161 -12 -96 -6 -90 -214 -217 -285 -173 -402 -282
-491 -459 -50 -100 -73 -197 -86 -355 l-11 -141 -111 -6 c-61 -3 -128 -12
-148 -18 -50 -16 -104 -63 -128 -110 -37 -72 -45 -11 195 -1474 36 -220 77
-461 91 -535 20 -110 23 -152 18 -226 -6 -84 -5 -96 17 -139 32 -64 88 -110
160 -131 44 -13 58 -22 55 -33 -9 -29 -73 -313 -107 -469 -24 -114 -30 -158
-22 -170 13 -21 66 -28 80 -10 12 15 31 88 103 408 28 124 53 233 56 243 5 16
40 17 555 17 l549 0 0 -328 c0 -350 0 -352 50 -352 50 0 50 2 50 352 l0 328
58 0 58 0 1 -330 c1 -181 4 -334 8 -340 4 -6 127 -10 346 -10 l339 0 9 23 c4
12 11 106 15 210 17 494 20 557 28 557 4 0 8 -8 8 -17 0 -10 5 -56 10 -103 5
-47 21 -211 35 -364 14 -154 31 -286 37 -293 15 -19 651 -19 666 0 8 9 5 78
-9 237 -52 597 -73 758 -105 807 l-14 23 1689 0 1690 0 -19 -44 c-29 -64 -63
-216 -124 -551 -78 -432 -83 -465 -65 -476 23 -14 575 -12 586 3 6 7 22 104
36 216 37 280 87 575 99 587 7 7 8 4 4 -10 -7 -26 -23 -258 -36 -548 -8 -174
-8 -232 1 -243 9 -12 70 -14 348 -14 185 0 341 4 348 8 6 4 30 115 53 247 70
404 75 430 83 428 4 -2 50 -3 102 -3 l95 0 0 -330 c0 -315 1 -330 19 -340 27
-14 56 -13 70 4 8 9 11 106 12 312 1 165 3 311 6 327 l6 27 556 0 556 0 69
-303 c85 -377 83 -371 119 -375 34 -4 57 13 57 42 0 21 -31 164 -100 466 -17
74 -33 143 -36 153 -4 12 0 17 13 17 10 0 46 13 79 29 102 48 150 134 140 249
-3 40 0 91 10 135 14 67 57 321 250 1482 47 282 77 492 78 542 1 75 -1 84 -29
125 -17 23 -51 54 -75 68 -41 22 -59 25 -200 30 l-155 5 -8 70 c-24 229 -143
478 -310 649 -79 80 -252 213 -328 252 -61 30 -73 50 -93 148 -24 118 -22 129
39 226 135 213 213 467 202 654 -8 154 -58 268 -163 378 -28 29 -64 74 -82 99
-72 106 -194 186 -327 214 -151 32 -283 15 -567 -70 -100 -30 -225 -64 -277
-75 -118 -24 -136 -39 -135 -113 0 -64 48 -160 106 -212 l38 -35 -16 -63 c-9
-34 -20 -134 -24 -222 -10 -180 -12 -188 -70 -311 -63 -132 -73 -168 -56 -208
16 -38 47 -60 105 -76 48 -13 44 -3 66 -143 9 -60 23 -130 32 -158 21 -64 72
-123 137 -157 47 -24 60 -26 164 -25 111 2 112 1 112 -22 0 -16 -8 -26 -22
-31 -13 -4 -51 -25 -85 -46 -191 -121 -288 -343 -324 -750 -7 -76 -16 -138
-21 -138 -4 0 -8 7 -8 16 0 25 -100 286 -122 316 -10 15 -57 52 -103 83 -81
54 -83 57 -89 103 -9 69 -46 482 -46 509 0 13 -12 36 -26 50 l-26 26 -207 -6
c-222 -7 -274 -16 -292 -49 -12 -22 -5 -166 26 -536 17 -212 30 -232 147 -232
l50 0 -7 -33 c-4 -17 -8 -63 -9 -102 0 -58 -4 -73 -20 -87 -74 -60 75 -310
249 -418 31 -19 63 -39 71 -45 10 -7 -303 -9 -943 -7 -527 2 -960 5 -962 8
-16 15 32 395 80 631 l10 53 82 -63 c95 -73 123 -91 232 -145 212 -106 336
-94 470 43 100 102 186 267 308 590 25 66 75 199 111 295 55 144 72 180 100
205 19 17 55 55 80 85 l45 55 190 -4 190 -3 24 24 25 25 -5 1574 c-5 1563 -5
1574 -25 1592 -19 16 -136 17 -2157 17 -1694 0 -2141 -3 -2154 -12z m4233
-1603 l0 -1495 -114 0 -113 0 24 48 c23 45 26 76 10 137 -3 11 -6 24 -6 28 -1
4 -21 29 -45 55 -24 26 -53 65 -64 87 -12 24 -35 49 -55 60 l-34 18 65 135
c44 90 67 150 70 183 4 44 2 51 -27 80 -27 27 -37 31 -67 26 -58 -10 -100 -51
-196 -195 -50 -75 -114 -168 -141 -206 -27 -39 -67 -104 -88 -145 -32 -65 -50
-115 -98 -281 l-8 -25 -395 -3 -395 -2 -38 117 c-64 200 -74 258 -100 613 -17
229 -29 327 -51 414 -48 188 -177 347 -346 426 -107 50 -180 65 -313 65 -105
-1 -130 -4 -200 -29 -102 -35 -180 -83 -262 -159 -161 -151 -244 -355 -293
-722 -27 -201 -39 -248 -107 -415 -54 -130 -93 -254 -93 -292 0 -17 -13 -18
-185 -18 l-185 0 0 28 c0 15 7 93 16 175 22 208 24 206 -188 227 l-128 13 0
1273 0 1274 2075 0 2075 0 0 -1495z m-2031 -400 c97 -118 92 -103 107 -323 10
-140 11 -220 4 -277 -29 -237 -138 -433 -278 -502 -50 -24 -69 -28 -147 -28
-111 0 -180 20 -266 77 -131 86 -244 231 -288 370 -12 36 -13 37 -62 36 -56
-2 -89 17 -126 71 -63 93 -15 261 74 261 32 0 59 -15 107 -58 l39 -35 24 27
c15 18 23 40 23 65 0 82 10 93 138 150 154 69 266 145 382 258 l95 92 58 -57
c33 -31 85 -88 116 -127z m-3364 -217 c163 -20 306 -21 387 -2 35 8 42 -9 69
-164 22 -129 24 -276 8 -486 -10 -136 -35 -325 -44 -334 -3 -3 -22 6 -42 19
-21 14 -50 30 -65 37 -16 6 -28 16 -28 22 0 5 -7 10 -15 10 -8 0 -15 5 -15 10
0 6 20 10 45 10 40 0 47 3 55 26 15 39 12 85 -11 134 -26 58 -57 90 -86 90
-27 0 -27 1 -8 -70 24 -89 22 -100 -23 -100 -30 0 -45 -7 -71 -34 -27 -28 -41
-34 -87 -38 -40 -3 -65 -13 -98 -36 -73 -53 -155 -35 -240 52 -73 76 -108 175
-121 346 -6 79 -5 88 18 130 38 68 83 215 96 308 6 46 13 87 15 91 6 9 50 5
261 -21z m6440 -4 c43 -20 53 -48 58 -169 4 -85 10 -114 42 -195 20 -52 41
-101 47 -107 20 -24 42 -13 107 57 60 63 70 70 104 70 53 0 93 -26 117 -75 53
-110 -6 -239 -138 -297 -34 -16 -43 -24 -40 -41 2 -17 13 -24 43 -30 63 -13
88 -29 121 -79 23 -34 33 -63 38 -110 4 -34 14 -96 23 -136 14 -70 14 -73 -7
-107 -50 -80 -258 -252 -375 -309 -118 -57 -110 -60 -129 41 -10 49 -22 108
-27 132 -6 24 -9 44 -7 45 36 15 85 45 104 62 33 32 33 80 -1 96 -21 9 -30 7
-62 -15 -75 -52 -188 -88 -279 -91 -54 -1 -68 3 -105 29 -44 31 -84 94 -95
150 -5 30 -4 31 46 44 34 9 65 26 91 51 45 42 47 52 18 81 -23 23 -44 21 -116
-12 -23 -10 -46 -19 -51 -19 -5 0 -12 33 -15 72 -7 84 -19 98 -84 98 -29 0
-46 5 -49 15 -3 7 19 76 49 152 l55 138 5 155 c3 93 12 185 22 231 l17 75 87
-4 c47 -1 120 1 161 6 119 15 189 14 225 -4z m-1408 -148 c-9 -55 -134 -297
-175 -338 -22 -22 -51 -40 -71 -44 l-35 -7 33 58 c78 138 233 365 249 365 3 0
2 -15 -1 -34z m-5597 -183 c57 -47 75 -132 60 -279 -17 -168 12 -349 78 -479
74 -147 216 -267 345 -290 23 -5 37 -13 37 -22 0 -30 -34 -86 -64 -104 -39
-24 -120 -25 -178 -2 -106 41 -236 163 -310 292 -28 49 -30 58 -24 115 13 114
38 371 40 396 1 25 -2 26 -48 29 -34 2 -81 44 -106 96 -25 51 -29 132 -11 188
28 83 118 113 181 60z m1862 -204 c86 -6 161 -15 168 -19 9 -5 7 -62 -9 -233
-12 -124 -21 -233 -21 -242 0 -14 -9 -15 -58 -9 -48 5 -66 3 -99 -15 -41 -20
-83 -67 -83 -91 0 -10 -19 -11 -76 -7 -42 3 -79 8 -82 12 -7 7 48 572 59 602
5 13 15 20 26 18 10 -2 88 -9 175 -16z m3706 -16 c3 -17 -9 -29 -51 -57 -96
-61 -143 -114 -156 -174 -25 -119 -2 -163 60 -113 l24 19 10 -41 c8 -35 15
-44 43 -52 17 -5 32 -13 32 -17 0 -14 -104 -107 -133 -119 -43 -18 -161 4
-212 39 -54 38 -55 60 -4 233 48 166 63 199 87 199 43 0 133 32 197 69 76 45
98 48 103 14z m66 -100 c13 -33 -167 -173 -191 -149 -15 15 25 63 96 114 40
28 77 52 81 52 4 0 11 -8 14 -17z m56 -110 c0 -28 -49 -102 -78 -117 -15 -8
-38 -16 -52 -17 -45 -7 -29 27 43 91 71 63 87 71 87 43z m-2391 -157 c38 -26
89 -53 112 -62 68 -23 177 -35 244 -25 33 5 61 8 62 7 6 -5 -30 -133 -48 -169
-65 -129 -149 -144 -329 -59 -55 26 -94 54 -147 107 -80 79 -93 109 -70 158
21 44 37 106 37 141 l0 30 35 -42 c20 -22 66 -61 104 -86z m-787 -89 c46 -31
43 -44 -31 -123 -133 -142 -195 -308 -286 -764 -15 -74 -37 -201 -50 -283 -12
-81 -24 -150 -27 -153 -3 -2 -34 -9 -69 -14 -35 -6 -74 -13 -87 -15 -27 -6
-28 -17 30 200 22 82 37 161 34 175 -3 17 18 77 65 189 96 224 113 293 114
456 0 151 -13 190 -77 234 -36 25 -38 28 -32 66 4 22 9 44 11 48 3 5 89 7 192
5 159 -3 190 -6 213 -21z m2484 -24 c-31 -44 -171 -285 -260 -447 -37 -66 -39
-68 -56 -50 -9 11 -68 74 -130 142 -94 103 -187 190 -327 308 -26 21 -29 34
-10 34 7 0 23 14 35 30 l23 30 379 0 380 0 -34 -47z m-1956 -40 c64 -121 198
-232 339 -280 76 -26 175 -30 225 -9 83 35 163 149 189 271 11 54 12 55 45 55
53 0 150 -28 228 -66 105 -52 210 -141 407 -346 l178 -186 -28 -56 c-32 -65
-26 -89 24 -94 30 -3 32 0 153 220 139 252 224 400 253 441 l19 28 22 -20 c39
-36 137 -75 204 -79 36 -3 62 -9 62 -15 0 -7 -18 -57 -39 -112 -248 -629 -290
-721 -379 -816 -77 -83 -118 -103 -204 -97 -56 4 -86 14 -180 61 -90 44 -271
166 -320 215 -4 4 -12 50 -18 102 -17 147 -58 308 -81 320 -26 14 -59 -4 -59
-33 0 -12 12 -89 27 -172 30 -168 28 -209 -21 -458 -29 -144 -56 -342 -56
-408 0 -57 -11 -114 -19 -101 -13 20 -108 73 -186 104 -96 38 -178 41 -375 14
l-125 -17 -230 60 c-126 34 -235 61 -242 61 -21 0 -23 15 -8 71 20 75 19 135
-3 157 -16 16 -16 23 6 147 37 211 52 322 52 375 0 45 -3 52 -26 62 -39 18
-59 -13 -67 -99 -7 -73 -49 -334 -67 -421 -14 -61 14 -52 -270 -92 -118 -17
-225 -33 -236 -35 -20 -5 -21 -2 -13 33 4 20 20 107 34 192 62 362 132 635
194 758 87 173 255 299 425 322 131 17 127 18 166 -57z m-2283 35 c71 2 87
-10 44 -33 -58 -29 -171 -9 -171 31 0 13 6 14 33 8 17 -5 60 -7 94 -6z m1268
-107 c77 -35 80 -44 79 -210 0 -129 -3 -155 -25 -221 -39 -114 -142 -352 -155
-357 -11 -4 -202 66 -231 85 -9 6 -6 23 13 70 18 46 24 77 22 115 -3 51 -4 52
-35 55 -28 3 -33 0 -38 -25 -15 -68 -24 -67 -24 2 -1 100 8 109 94 95 37 -6
76 -15 86 -20 33 -18 59 -12 59 14 0 33 -48 71 -109 86 -43 10 -51 16 -51 35
0 27 17 35 74 35 32 0 59 -10 107 -39 68 -41 89 -43 89 -5 0 28 -80 96 -135
114 -39 13 -39 13 -24 41 14 27 65 17 147 -28 51 -28 66 -32 78 -23 20 18 18
34 -13 71 -32 38 -95 68 -141 69 -39 0 -55 26 -27 46 27 20 113 17 160 -5z
m-2039 -260 c81 -91 136 -135 223 -179 60 -30 88 -37 145 -40 63 -3 77 0 126
25 59 31 125 106 136 155 3 16 7 28 10 28 2 0 29 -11 61 -25 85 -38 211 -170
295 -310 70 -118 298 -566 298 -587 0 -7 -14 -40 -30 -72 -17 -32 -30 -54 -30
-48 0 7 12 37 27 67 l28 56 -132 262 c-73 144 -160 305 -194 357 -75 115 -185
227 -259 262 l-55 26 -23 -46 c-113 -225 -369 -213 -602 28 -54 55 -89 102
-156 208 -4 7 -314 -184 -370 -229 -122 -97 -217 -219 -264 -339 -30 -77 -43
-159 -50 -320 l-7 -155 -1 117 c-3 201 27 342 100 466 18 32 80 104 138 162
92 91 126 117 260 197 85 51 164 98 174 106 18 13 22 10 56 -46 20 -33 63 -90
96 -126z m7779 38 c95 -65 216 -178 277 -258 113 -150 195 -374 203 -561 l4
-95 -9 87 c-35 328 -156 562 -388 750 -82 66 -220 158 -237 158 -5 0 -57 -46
-115 -103 -172 -166 -340 -274 -458 -293 -34 -5 -44 -2 -75 25 -27 24 -38 44
-46 83 -6 28 -9 53 -7 56 3 2 8 -14 12 -37 8 -53 42 -103 76 -115 36 -13 135
20 226 75 87 52 254 191 324 269 l53 59 45 -26 c25 -14 77 -48 115 -74z
m-1771 -171 c9 -117 19 -229 22 -249 l5 -37 -38 11 c-75 20 -137 -19 -149 -91
-6 -38 -8 -40 -51 -46 -25 -3 -65 -6 -89 -6 -41 0 -43 2 -48 33 -9 51 -47 569
-43 573 3 3 234 19 333 23 l41 1 17 -212z m916 45 c0 -5 -18 -16 -38 -25 -163
-75 -259 -274 -302 -627 -10 -80 -18 -132 -19 -116 -2 54 28 265 50 354 43
177 138 324 252 390 58 34 57 34 57 24z m-898 -438 c20 -13 64 -52 97 -86 62
-62 83 -70 89 -31 4 29 18 28 38 -3 17 -27 154 -415 154 -439 0 -29 -172 -226
-197 -226 -23 0 -145 66 -221 119 -73 52 -143 131 -184 208 -12 23 -19 45 -15
49 4 4 27 -11 50 -34 30 -29 49 -41 60 -36 29 11 19 48 -32 115 -45 59 -74
129 -54 129 4 0 35 -29 69 -65 39 -42 68 -65 82 -65 37 0 26 32 -43 129 -66
91 -87 142 -65 156 11 7 77 -57 157 -149 27 -33 34 -36 52 -26 12 6 21 18 21
28 -1 36 -41 105 -95 161 -63 66 -75 108 -27 96 15 -3 44 -17 64 -30z m-4305
-23 c48 -21 114 -49 146 -61 31 -13 59 -27 62 -30 2 -4 -7 -47 -20 -97 -13
-49 -24 -82 -24 -74 0 8 8 49 19 90 10 41 18 75 17 76 -4 3 -272 115 -281 117
-5 1 -68 -113 -140 -253 -145 -283 -172 -330 -189 -330 -9 0 -9 2 -1 8 20 13
59 83 189 340 70 138 129 252 131 252 2 0 43 -17 91 -38z m-1900 -72 c-17 -14
-27 -33 -30 -58 l-4 -37 -1 38 c-2 37 24 77 49 77 7 0 0 -9 -14 -20z m69 -15
c11 -17 17 -52 19 -107 1 -46 1 -67 -1 -48 -2 19 -7 59 -10 88 -3 33 -13 61
-25 73 -10 10 -15 19 -9 19 5 0 17 -11 26 -25z m1047 8 c8 -10 18 -31 21 -48
l6 -30 -11 30 c-17 44 -28 55 -59 55 -37 0 -50 -33 -50 -131 0 -126 -61 -863
-72 -875 -3 -2 -43 -6 -89 -9 l-84 -4 79 9 c44 5 83 14 86 20 4 7 10 46 13 88
4 42 18 214 32 382 14 168 25 342 25 388 0 102 17 142 59 142 15 0 35 -8 44
-17z m6607 -3 c11 -11 20 -29 20 -41 0 -11 -38 -186 -85 -388 -109 -474 -104
-441 -66 -469 17 -12 31 -29 31 -38 0 -23 -46 -64 -72 -64 -12 0 -189 95 -393
211 -203 116 -393 224 -421 240 l-52 29 -83 -102 c-45 -57 -98 -120 -117 -141
-18 -21 -32 -42 -30 -46 7 -17 298 -267 412 -354 96 -73 284 -191 391 -244
133 -67 220 -95 317 -100 80 -5 92 -4 142 21 140 69 255 273 401 711 67 201
85 261 115 381 13 52 50 73 87 49 34 -22 38 -39 24 -99 -21 -93 -53 -207 -57
-203 -2 2 9 55 26 118 36 139 37 154 5 175 -42 27 -67 2 -88 -89 -24 -104
-129 -426 -184 -567 -113 -287 -218 -438 -341 -492 -61 -27 -186 -21 -289 15
-159 56 -426 213 -606 356 -121 97 -367 312 -367 321 0 4 33 48 73 97 39 49
90 112 111 139 22 27 43 53 47 58 8 10 -4 16 490 -265 201 -115 375 -209 387
-209 25 0 62 33 62 55 0 9 -14 24 -31 33 -29 16 -30 20 -25 60 3 24 19 101 35
170 159 686 156 665 105 678 -36 9 -61 -19 -74 -85 -15 -74 -64 -289 -96 -423
-14 -59 -36 -157 -48 -217 l-21 -111 -210 119 c-115 65 -225 126 -242 137 -28
16 -33 24 -32 54 l2 35 6 -32 c4 -24 17 -40 51 -61 80 -51 412 -233 416 -229
3 2 13 49 24 103 10 54 40 187 65 294 25 107 55 238 66 290 27 129 68 171 119
120z m-774 -51 c17 -19 19 -40 20 -222 l2 -202 -8 202 c-5 139 -11 207 -20
218 -17 21 -46 19 -70 -5 -24 -24 -27 -14 -3 12 21 24 55 23 79 -3z m-5836
-376 l-20 -244 52 -62 c126 -150 255 -260 353 -303 17 -7 24 -13 16 -14 -28 0
-153 83 -223 148 -39 37 -102 104 -140 149 l-68 82 20 237 c11 130 21 264 22
298 l2 61 3 -54 c2 -29 -5 -163 -17 -298z m-1123 107 c0 -60 -1 -58 -8 25 -4
50 -7 117 -6 150 0 53 1 50 8 -25 4 -47 7 -114 6 -150z m6871 17 c4 -108 6
-197 5 -197 -2 0 -34 20 -73 45 l-70 45 6 72 c4 40 9 75 12 78 3 3 2 -27 -1
-67 -6 -79 -7 -79 72 -128 l44 -27 -6 198 c-3 110 -4 194 -1 189 2 -6 8 -100
12 -208z m-4809 36 c-14 -65 -21 -73 -64 -72 -29 2 -29 2 5 8 33 6 35 9 49 68
8 35 16 61 19 59 2 -3 -2 -31 -9 -63z m-1952 -50 c-2 -21 -4 -4 -4 37 0 41 2
58 4 38 2 -21 2 -55 0 -75z m8658 68 c72 -8 82 -12 108 -42 29 -31 29 -35 24
-108 -5 -70 -104 -697 -260 -1645 l-63 -378 -48 -2 -48 -2 6 36 c23 126 36
209 36 236 0 23 5 33 19 37 33 8 42 71 36 254 -2 93 -7 495 -10 896 l-6 727
63 -1 c35 0 99 -4 143 -8z m-9491 -193 c6 -144 2 -289 -14 -568 -11 -206 -23
-495 -27 -641 l-6 -266 25 -17 c23 -15 26 -25 33 -104 3 -48 13 -114 21 -146
17 -67 72 -180 103 -213 12 -12 21 -25 21 -28 0 -8 -141 2 -150 12 -7 7 -140
789 -200 1178 -11 66 -41 260 -69 430 -65 402 -68 433 -47 473 31 60 82 79
222 81 l82 1 6 -192z m103 10 c-2 -35 -3 -9 -3 57 0 66 1 94 3 63 2 -32 2 -86
0 -120z m9092 -1131 l1 -467 -25 -10 c-14 -5 -55 -12 -92 -14 -77 -6 -70 -3
36 14 l74 12 -5 882 c-3 511 -2 707 2 466 4 -228 8 -625 9 -883z m-5514 1206
c-8 -32 -26 -107 -40 -168 -14 -60 -64 -265 -111 -455 -46 -190 -87 -355 -89
-366 -4 -18 -20 -25 -92 -42 -105 -25 -1093 -252 -1097 -252 -2 0 7 39 20 88
12 48 50 204 83 347 138 590 171 727 176 735 2 4 31 11 62 15 80 9 879 124
978 140 134 21 125 25 110 -42z m-1073 1 c-102 -17 -135 -33 -156 -78 -13 -28
-122 -457 -151 -593 -4 -22 -12 -33 -23 -33 -13 0 -14 2 -4 9 8 4 22 44 31 87
43 188 115 473 130 513 9 24 28 53 43 64 30 22 122 45 178 45 19 0 -2 -6 -48
-14z m-1753 -244 c15 -306 17 -319 44 -325 20 -4 433 -67 557 -85 l55 -8 -60
3 c-33 2 -103 10 -155 19 -52 10 -169 28 -258 41 -90 13 -166 26 -169 29 -3 3
-12 110 -19 238 -14 242 -17 334 -10 327 2 -2 9 -110 15 -239z m-122 103 c-2
-21 -4 -4 -4 37 0 41 2 58 4 38 2 -21 2 -55 0 -75z m1448 27 c8 0 17 -4 20
-10 4 -6 -1 -7 -12 -3 -26 9 -43 24 -43 37 0 6 5 3 11 -6 5 -10 16 -18 24 -18z
m-2035 -355 c45 -296 121 -510 199 -559 85 -54 104 -56 491 -56 l360 0 0 53
c0 28 6 75 14 102 15 57 75 185 87 185 4 0 -6 -24 -22 -52 -41 -75 -69 -171
-69 -239 l0 -60 -382 3 -383 3 -57 28 c-72 35 -108 78 -146 176 -60 153 -117
445 -126 646 l-5 100 9 -95 c5 -52 19 -158 30 -235z m3956 190 c-46 -102 -60
-148 -64 -217 l-5 -78 -36 0 c-37 0 -344 29 -348 33 -2 2 74 332 82 353 2 8
62 -3 189 -35 106 -26 184 -50 182 -56z m-3339 -275 c-2 -11 -14 -14 -47 -12
-46 3 -69 -10 -83 -48 -4 -12 -6 -11 -6 3 -2 32 35 57 85 57 l47 0 -6 53 c-3
28 -8 111 -11 182 -5 126 -5 125 9 -45 8 -96 14 -182 12 -190z m3997 237 c50
-24 119 -65 153 -90 83 -61 138 -157 91 -157 -6 0 -37 25 -69 55 -79 73 -134
109 -236 157 -58 27 -92 38 -109 34 -31 -8 -32 -39 -1 -53 12 -6 44 -21 71
-34 77 -35 253 -180 241 -199 -13 -21 -61 -10 -91 21 -58 61 -251 169 -302
169 -23 0 -46 -25 -38 -39 4 -5 30 -21 59 -34 63 -30 209 -128 215 -145 7 -21
-46 -13 -121 17 -120 49 -143 54 -214 46 -101 -11 -253 -7 -269 6 -32 27 -1
196 44 241 14 15 56 23 193 38 234 25 269 22 383 -33z m4246 -32 c-16 -47 -23
-40 -8 8 6 20 13 35 16 33 2 -3 -1 -21 -8 -41z m-66 -189 c-20 -59 -38 -105
-40 -103 -2 2 12 52 32 111 20 59 38 105 40 103 2 -2 -12 -52 -32 -111z
m-6904 -138 c47 -37 166 -101 211 -111 25 -6 25 -8 15 -57 -5 -27 -13 -50 -17
-50 -3 0 -19 18 -35 41 -77 111 -201 185 -336 200 -45 5 -84 11 -86 14 -2 2
-1 45 3 95 l7 91 97 -93 c53 -51 116 -110 141 -130z m4420 212 l565 -1 -165
-82 -165 -81 -125 2 c-165 4 -246 -10 -345 -58 -71 -35 -112 -63 -236 -162
-31 -24 -58 -30 -299 -67 -146 -22 -287 -43 -315 -47 -27 -3 -60 -13 -72 -20
-26 -16 -30 -55 -9 -73 19 -16 569 -357 607 -376 28 -15 43 -14 252 25 485 89
853 162 865 173 29 23 8 51 -78 101 l-84 50 314 57 c173 32 328 58 343 59 30
0 101 -50 576 -407 134 -101 257 -191 275 -201 29 -16 -68 -17 -1896 -20
-1059 -1 -2796 -1 -3860 0 l-1933 3 265 176 c146 97 275 181 286 188 17 8 29
7 52 -4 30 -15 872 -155 932 -155 17 0 88 13 158 30 70 16 307 70 527 120 554
125 574 130 601 154 20 17 34 59 76 231 28 116 52 211 53 213 2 2 70 -4 151
-13 196 -22 538 -30 621 -15 59 10 71 9 163 -19 136 -41 175 -45 235 -27 28 9
75 16 106 16 43 0 60 5 74 20 10 11 29 20 42 20 38 0 82 28 89 56 7 28 1 98
-12 128 -7 19 2 19 397 13 222 -4 658 -7 969 -7z m879 -265 c82 -71 148 -131
146 -133 -2 -2 -70 54 -151 125 -81 70 -165 143 -186 162 l-39 33 -82 -37
c-45 -21 -110 -51 -145 -67 l-63 -29 31 -38 c39 -50 80 -139 86 -188 3 -30 1
-27 -11 16 -19 67 -56 136 -96 179 -17 18 -30 34 -28 36 2 1 33 15 69 30 36
15 103 47 150 70 l85 42 42 -36 c23 -19 109 -93 192 -165z m-6524 55 c123 -11
228 -27 195 -29 -8 0 -88 8 -178 18 -127 14 -167 22 -180 36 -16 17 -16 17 8
3 15 -9 78 -20 155 -28z m8060 -51 c-46 -109 -125 -261 -171 -325 -50 -71
-141 -157 -195 -184 -61 -32 -58 -23 7 16 73 44 103 71 165 153 48 63 144 243
189 353 13 32 25 56 27 54 2 -2 -8 -32 -22 -67z m-8715 -218 c41 -105 116
-186 206 -222 58 -23 66 -24 391 -24 183 0 333 -1 333 -2 0 -1 -91 -64 -202
-139 -255 -173 -372 -259 -396 -289 l-19 -24 -84 19 c-91 20 -258 65 -301 82
l-28 10 0 117 c0 64 5 251 12 415 l12 300 22 -80 c12 -43 36 -117 54 -163z
m1030 219 c56 -13 3 -10 -85 5 l-80 14 65 -5 c36 -3 81 -9 100 -14z m5452 -6
l98 -6 30 -41 c40 -54 72 -142 68 -186 l-3 -36 -140 -27 c-158 -30 -305 -43
-350 -30 -33 9 -45 41 -22 60 8 7 65 19 128 28 126 18 149 26 149 54 0 26 -8
29 -105 42 l-85 12 0 33 c0 66 -29 59 -189 -49 -108 -73 -217 -138 -231 -138
-21 0 8 55 49 91 174 154 302 213 441 204 36 -2 109 -7 162 -11z m-5369 -11
c-7 -2 -21 -2 -30 0 -10 3 -4 5 12 5 17 0 24 -2 18 -5z m702 -25 c94 -49 214
-167 234 -231 32 -101 10 -108 -49 -15 -70 110 -244 239 -287 212 -33 -20 -25
-40 29 -76 109 -72 218 -182 218 -219 0 -40 -32 -27 -105 41 -121 111 -253
172 -272 125 -6 -16 22 -55 39 -55 14 0 151 -96 178 -125 18 -19 21 -28 12
-37 -8 -8 -40 2 -129 42 l-117 53 -121 -13 c-132 -15 -164 -15 -179 0 -5 5
-14 6 -20 1 -6 -5 -29 -14 -51 -20 -30 -8 -41 -8 -47 2 -25 39 12 196 65 276
l24 36 159 17 c87 9 206 15 264 14 90 -2 112 -6 155 -28z m5450 -110 c-91 -22
-485 -94 -485 -89 0 4 96 24 213 45 116 22 223 43 237 47 14 4 36 7 50 7 17 0
12 -3 -15 -10z m-1523 -146 c-4 -44 -2 -51 23 -70 15 -12 35 -22 44 -22 22 0
103 39 185 88 37 23 70 42 71 42 2 0 1 -15 -2 -33 -8 -50 18 -91 73 -117 52
-26 110 -25 322 6 l112 16 55 -28 c51 -27 69 -44 45 -44 -6 0 -164 -29 -353
-64 -499 -94 -532 -100 -556 -87 -11 6 -117 72 -236 146 -119 74 -220 135
-225 135 -6 0 -10 4 -10 8 0 4 15 9 33 10 17 2 113 15 212 31 99 16 187 29
196 30 13 1 15 -7 11 -47z m-4119 -148 c115 -49 153 -57 221 -45 34 6 87 14
119 19 l57 9 0 -50 0 -49 -57 6 c-32 4 -83 11 -113 17 -30 5 -158 25 -285 44
-254 40 -309 52 -235 55 25 1 65 5 90 9 87 16 138 12 203 -15z m6362 -64 c36
-16 81 -25 160 -30 l110 -8 -110 2 c-85 3 -122 8 -164 25 -29 12 -55 20 -57
18 -2 -2 99 -80 224 -174 125 -94 237 -182 249 -195 12 -12 23 -36 25 -53 3
-29 5 -30 78 -42 58 -9 63 -11 20 -8 -30 3 -67 5 -82 5 -26 0 -28 3 -28 38 0
29 -7 45 -27 64 -28 25 -533 403 -569 425 -20 12 87 -30 171 -67z m302 -26
c-3 -3 -12 -4 -19 -1 -8 3 -5 6 6 6 11 1 17 -2 13 -5z m-3888 -434 l3924 -1
-6 -111 c-4 -61 -8 -113 -10 -114 -5 -5 -5900 -11 -6973 -7 l-931 3 4 108 c3
59 6 112 8 118 2 6 16 10 32 8 15 -2 1794 -4 3952 -4z m4383 -17 c-40 -2 -103
-2 -140 0 -37 2 -4 3 73 3 77 0 107 -2 67 -3z m-8432 -486 c74 -19 178 -40
230 -47 93 -11 498 -29 673 -30 73 0 90 -3 107 -20 11 -11 20 -24 20 -30 0 -7
-247 -10 -722 -10 -690 0 -724 1 -754 19 -35 21 -64 75 -64 118 0 16 2 32 4
34 2 2 87 3 188 2 174 -1 189 -3 318 -36z m8783 -14 c-2 -53 -16 -79 -56 -103
-31 -19 -56 -20 -772 -19 -422 0 -731 4 -720 9 l20 9 -20 1 c-13 1 -5 7 20 15
30 10 139 14 450 14 565 1 694 15 835 87 61 30 71 33 155 31 l90 -2 -2 -42z"/>
<path d="M4492 8552 c-23 -23 -29 -85 -38 -403 -7 -234 -7 -237 14 -248 15 -8
113 -10 324 -9 l303 3 12 26 c13 27 38 584 27 612 -12 33 -53 37 -339 37 -264
0 -286 -1 -303 -18z m465 -91 l72 -1 -4 -92 c-3 -51 -8 -155 -11 -230 l-6
-138 -229 0 -228 0 4 98 c3 53 8 158 11 232 l6 135 156 -2 c87 -1 190 -2 229
-2z"/>
<path d="M3651 8543 c-19 -17 -21 -35 -35 -308 -12 -247 -12 -293 0 -312 14
-22 17 -22 302 -25 327 -3 338 -3 347 20 6 16 18 208 29 475 8 182 37 167
-328 167 -265 0 -296 -2 -315 -17z m531 -253 c-1 -91 -5 -193 -8 -227 l-6 -63
-230 0 -230 0 6 88 c3 48 8 148 12 222 3 74 8 138 11 143 2 4 104 6 226 5
l222 -3 -3 -165z"/>
<path d="M5740 8540 c-19 -19 -20 -32 -20 -257 0 -172 4 -245 13 -263 l13 -25
202 -3 202 -2 0 -170 0 -169 -196 -3 c-180 -3 -197 -5 -210 -22 -11 -16 -14
-69 -14 -266 0 -227 2 -248 18 -263 16 -15 46 -17 210 -17 l192 0 0 -77 0 -76
-160 -163 c-176 -178 -180 -186 -132 -246 55 -69 305 -328 323 -333 10 -3 31
1 46 9 29 15 284 278 315 325 35 52 27 66 -137 239 l-155 163 0 79 0 80 195 0
c182 0 196 1 215 20 19 19 20 33 20 265 0 232 -1 246 -20 265 -19 19 -33 20
-215 20 l-195 0 0 170 0 170 199 0 c195 0 200 1 215 22 22 32 24 494 2 524
-14 18 -32 19 -460 22 -436 3 -446 2 -466 -18z m826 -93 c1 -1 4 -81 5 -176
l2 -175 -371 -4 -372 -3 0 183 0 183 367 -3 c202 -1 368 -4 369 -5z m10 -1252
c-5 -13 -57 -15 -369 -15 l-364 0 -6 164 c-4 91 -4 172 -1 180 5 14 52 16 368
18 l361 3 8 -168 c5 -92 6 -174 3 -182z m-127 -635 c0 -3 -56 -63 -124 -135
l-125 -130 -124 130 c-69 72 -125 135 -125 140 -1 6 54 68 121 139 l123 129
127 -134 c71 -74 128 -136 127 -139z"/>
<path d="M4817 6810 c-63 -12 -102 -61 -78 -98 7 -11 16 -11 54 2 36 12 58 13
98 6 28 -5 55 -12 60 -16 13 -8 22 22 15 51 -7 29 -60 66 -91 64 -11 -1 -37
-5 -58 -9z"/>
<path d="M5224 6810 c-37 -12 -60 -36 -69 -71 -9 -37 7 -44 60 -23 33 12 63
15 110 12 62 -5 65 -5 65 16 0 54 -90 89 -166 66z"/>
<path d="M4832 6614 c-43 -30 -20 -104 32 -104 49 0 75 70 38 103 -23 21 -41
21 -70 1z"/>
<path d="M5227 6612 c-21 -23 -21 -41 -1 -70 17 -25 71 -31 92 -10 17 17 15
64 -4 82 -21 22 -67 20 -87 -2z"/>
<path d="M5101 6532 c-7 -13 -3 -34 15 -78 13 -32 24 -64 24 -71 0 -7 -18 -13
-41 -15 -88 -6 -72 -67 19 -76 92 -8 124 33 96 127 -26 90 -51 131 -79 131
-13 0 -29 -8 -34 -18z"/>
<path d="M4841 6201 c-35 -22 39 -128 114 -162 48 -22 87 -24 123 -5 62 32
114 114 91 143 -9 10 -26 12 -69 7 -38 -4 -81 -1 -128 10 -80 18 -111 20 -131
7z"/>
<path d="M1882 6444 c-16 -11 -22 -24 -20 -42 2 -22 7 -26 28 -24 14 2 53 4
88 5 57 0 62 2 62 22 0 48 -108 75 -158 39z"/>
<path d="M2243 6436 c-23 -20 -26 -28 -17 -43 9 -15 25 -18 88 -18 43 0 80 4
83 8 10 17 -8 54 -32 65 -43 20 -91 15 -122 -12z"/>
<path d="M1953 6275 c-48 -34 -14 -115 42 -101 38 10 51 53 27 85 -24 32 -41
36 -69 16z"/>
<path d="M2292 6274 c-40 -28 -18 -104 31 -104 46 0 64 77 25 104 -12 9 -25
16 -28 16 -3 0 -16 -7 -28 -16z"/>
<path d="M8013 6495 c-31 -13 -53 -41 -53 -68 0 -11 19 -16 78 -20 42 -3 89
-9 105 -13 24 -6 27 -4 27 18 0 36 -35 76 -78 88 -45 12 -40 12 -79 -5z"/>
<path d="M7982 6288 c-17 -17 -15 -64 4 -82 34 -35 94 -6 94 45 0 33 -18 49
-55 49 -17 0 -36 -5 -43 -12z"/>
<path d="M3125 6036 c-9 -94 -5 -106 37 -106 66 0 102 -56 60 -93 -24 -22 -44
-21 -75 3 -32 25 -39 25 -55 -1 -10 -16 -11 -24 -1 -35 21 -26 66 -44 108 -44
108 0 154 159 62 213 -16 9 -39 17 -50 17 -16 0 -21 6 -21 26 0 24 2 25 53 23
61 -3 77 4 77 31 0 20 -16 25 -122 35 l-66 6 -7 -75z"/>
<path d="M7122 5280 c-24 -15 -32 -27 -30 -43 4 -27 39 -35 58 -12 17 21 47
19 59 -4 12 -22 -4 -48 -34 -53 -14 -2 -20 -11 -20 -28 0 -21 6 -26 35 -30 31
-4 35 -8 35 -35 0 -28 -2 -30 -40 -29 -22 0 -48 4 -57 8 -25 11 -43 -27 -23
-48 28 -28 90 -38 128 -22 68 28 90 106 42 144 -16 13 -22 23 -15 27 43 26 26
109 -26 131 -46 19 -73 18 -112 -6z"/>
<path d="M3460 3902 c-41 -20 -80 -90 -87 -155 -4 -36 -1 -48 19 -72 52 -60
134 -20 163 79 25 83 15 134 -32 155 -29 13 -22 14 -63 -7z"/>
<path d="M547 3485 c-15 -259 -20 -632 -9 -639 16 -10 213 -65 310 -86 78 -17
83 -17 95 -1 18 27 162 132 376 276 l193 130 -314 5 c-295 5 -316 7 -370 28
-66 27 -148 96 -183 157 -23 38 -78 183 -87 230 -2 11 -7 -34 -11 -100z"/>
<path d="M8515 3160 c3 -5 11 -10 16 -10 6 0 7 5 4 10 -3 6 -11 10 -16 10 -6
0 -7 -4 -4 -10z"/>
</g>
</svg>
