<?xml version="1.0" standalone="no"?>
<!DOCTYPE svg PUBLIC "-//W3C//DTD SVG 20010904//EN"
 "http://www.w3.org/TR/2001/REC-SVG-20010904/DTD/svg10.dtd">
<svg version="1.0" xmlns="http://www.w3.org/2000/svg"
 width="1024.000000pt" height="1024.000000pt" viewBox="0 0 1024.000000 1024.000000"
 preserveAspectRatio="xMidYMid meet">

<g transform="translate(0.000000,1024.000000) scale(0.100000,-0.100000)"
fill="#000000" stroke="none">
<path d="M4915 8895 c-181 -52 -340 -95 -352 -95 -12 0 -88 35 -170 78 l-148
77 -101 0 c-118 0 -87 13 -549 -233 -154 -82 -374 -198 -490 -259 -529 -278
-924 -487 -970 -513 -100 -57 -157 -140 -170 -250 -13 -110 8 -175 185 -565
45 -99 189 -421 320 -715 263 -591 345 -773 475 -1055 48 -104 116 -255 152
-335 123 -274 151 -326 208 -378 112 -103 235 -108 450 -22 149 60 263 97 455
145 155 38 146 38 905 61 999 30 1023 31 1095 55 36 11 76 27 90 34 23 12 33
10 93 -16 160 -68 315 -99 497 -99 349 0 643 125 877 373 133 141 223 290 282
465 59 178 66 221 66 427 0 166 -3 201 -24 280 -57 222 -183 441 -340 593
-187 181 -385 289 -646 354 -108 26 -346 31 -458 9 -37 -7 -69 -12 -71 -10 -2
2 -9 263 -15 579 -10 458 -15 585 -27 625 -32 105 -120 188 -234 222 -47 13
-88 15 -270 9 -118 -3 -252 -9 -297 -13 l-82 -6 -29 65 c-60 132 -158 198
-302 205 -70 3 -97 -3 -405 -92z m448 -76 c36 -10 117 -72 117 -89 0 -11 -70
-18 -340 -35 -135 -8 -287 -19 -337 -23 -51 -4 -89 -5 -85 -1 15 14 547 157
587 158 11 1 37 -4 58 -10z m-1080 -64 c43 -20 77 -39 75 -40 -2 -2 -37 -11
-78 -19 -41 -9 -148 -36 -237 -61 -90 -25 -238 -65 -330 -90 -93 -25 -181 -50
-197 -55 -61 -20 -3 12 289 159 347 176 338 174 478 106z m1982 -186 c51 -14
110 -74 123 -124 8 -32 32 -899 32 -1145 l0 -55 -45 -18 c-130 -54 -354 -234
-470 -379 -32 -40 -62 -77 -66 -82 -4 -5 -24 25 -45 65 -47 94 -72 126 -219
279 -118 123 -207 231 -275 337 -19 29 -40 55 -47 57 -7 3 -56 -52 -119 -135
-58 -77 -175 -211 -259 -299 -84 -88 -171 -187 -193 -220 -143 -213 -100 -468
94 -565 119 -58 270 -25 363 81 l40 46 -6 -39 c-22 -156 -51 -222 -134 -309
-63 -65 -72 -90 -36 -99 12 -3 125 -2 252 2 272 9 272 10 182 102 -78 80 -111
154 -132 301 l-6 45 36 -42 c22 -25 62 -55 102 -75 57 -28 76 -32 137 -31 l71
1 -8 -92 c-14 -166 9 -357 64 -514 68 -198 182 -368 349 -524 50 -47 90 -89
90 -95 0 -13 -120 -20 -710 -38 -267 -8 -543 -17 -615 -20 -412 -16 -572 -17
-607 -6 -45 15 -101 75 -119 127 -12 32 -14 303 -14 1599 0 1738 -5 1621 68
1717 52 69 101 88 226 88 128 0 798 25 1316 49 474 23 530 24 580 10z m-2318
-191 c-18 -47 -22 -81 -27 -283 -10 -386 -10 -2853 -1 -2953 11 -104 34 -157
97 -211 20 -18 35 -33 33 -35 -17 -11 -203 -56 -232 -56 -75 0 -150 49 -187
121 -11 20 -29 85 -40 145 -91 467 -364 1797 -481 2341 -60 282 -109 530 -109
550 0 21 5 55 11 77 13 45 77 119 120 137 31 12 804 217 826 218 7 1 4 -18
-10 -51z m-1093 -290 c-8 -29 -14 -64 -14 -79 0 -25 38 -215 125 -624 20 -93
74 -354 120 -580 46 -225 127 -619 180 -875 113 -546 185 -913 185 -937 0 -37
60 -143 109 -194 28 -29 51 -54 51 -55 0 -9 -98 -13 -130 -4 -68 18 -108 63
-166 186 -100 211 -511 1121 -712 1574 -72 162 -185 419 -252 570 -68 151
-145 327 -173 390 -71 162 -76 247 -16 308 28 28 152 96 573 311 66 34 123 61
126 61 4 0 1 -23 -6 -52z m4176 -928 c36 -6 95 -19 132 -30 l66 -20 -44 -97
c-24 -54 -48 -99 -53 -101 -5 -2 -46 4 -91 12 -45 9 -122 16 -170 16 l-88 0
-11 48 c-5 27 -13 79 -17 115 l-7 67 109 0 c60 0 138 -5 174 -10z m-420 -120
c11 -52 23 -102 26 -112 4 -12 -7 -20 -48 -33 -29 -10 -86 -35 -126 -56 -41
-21 -75 -39 -77 -39 -8 0 -124 174 -120 180 11 18 158 97 235 126 47 18 86 31
87 30 1 -1 11 -44 23 -96z m834 -44 c44 -30 112 -82 150 -117 68 -63 166 -173
166 -187 0 -8 -156 -102 -169 -102 -5 0 -43 35 -85 78 -41 42 -111 102 -154
132 l-79 55 39 83 c21 46 38 90 38 98 0 21 6 18 94 -40z m-1234 -187 c30 -39
58 -77 63 -84 5 -9 -17 -44 -62 -100 -38 -48 -86 -118 -106 -155 -20 -39 -41
-67 -48 -65 -111 34 -183 59 -190 64 -9 9 71 167 120 235 53 75 144 176 157
176 6 -1 36 -33 66 -71z m835 -34 c234 -60 429 -243 512 -480 25 -73 28 -92
28 -225 0 -122 -4 -156 -22 -215 -43 -133 -127 -258 -230 -340 -71 -56 -239
-139 -311 -154 -76 -16 -236 -13 -312 4 -97 23 -242 99 -312 163 -115 107
-204 265 -229 408 -19 108 -7 275 26 364 87 238 270 410 497 470 93 24 269 26
353 5z m837 -282 c43 -95 78 -241 85 -355 l6 -98 -84 1 c-46 1 -97 4 -113 8
-27 6 -29 9 -33 66 -5 79 -36 208 -68 287 -14 35 -21 64 -16 66 6 2 50 23 98
47 48 24 89 44 91 44 2 1 17 -29 34 -66z m-1879 -227 c20 -5 27 -11 23 -22
-17 -45 -26 -190 -16 -271 9 -69 8 -88 -2 -94 -30 -19 -180 -61 -188 -53 -31
31 -37 306 -10 435 l12 57 77 -23 c42 -13 89 -26 104 -29z m1880 -362 c54 -5
67 -10 67 -24 0 -31 -37 -164 -69 -246 -31 -80 -115 -224 -131 -224 -5 0 -35
24 -67 53 -32 28 -69 62 -82 73 l-24 22 26 33 c39 53 82 146 112 243 l28 88
36 -6 c20 -3 66 -8 104 -12z m-1782 -216 c42 -83 82 -142 142 -205 l50 -53
-81 -82 -81 -83 -51 50 c-62 61 -149 188 -191 280 -34 76 -35 73 41 102 25 9
65 24 90 34 25 10 46 18 47 18 2 1 17 -27 34 -61z m1509 -444 c-57 -58 -172
-137 -256 -175 -36 -16 -70 -29 -74 -29 -10 0 -33 60 -59 152 l-19 67 56 32
c61 34 191 129 212 155 12 13 24 5 99 -70 l86 -86 -45 -46z m-1003 -2 l32 -10
-14 -59 c-8 -32 -20 -82 -26 -110 -11 -50 -14 -52 -38 -46 -89 21 -268 108
-299 146 -13 15 -2 32 81 129 l47 56 93 -48 c50 -25 106 -52 124 -58z m494
-137 c20 -78 25 -112 17 -117 -32 -19 -352 -30 -367 -11 -4 4 -1 56 7 116 l14
107 87 1 c47 0 106 4 131 9 83 15 81 17 111 -105z"/>
<path d="M4405 8278 c-6 -19 -159 -432 -189 -510 l-25 -68 68 0 69 0 25 68 25
67 97 0 98 0 25 -67 25 -68 68 0 c38 0 69 2 69 5 0 2 -17 49 -39 102 -21 54
-71 185 -111 291 l-73 192 -64 0 c-42 0 -65 -4 -68 -12z m92 -220 c12 -40 25
-81 28 -90 6 -16 0 -18 -53 -18 l-60 0 24 75 c13 42 24 82 24 90 0 36 18 9 37
-57z"/>
<path d="M3300 8063 c-30 -16 -62 -40 -73 -54 -21 -29 -47 -101 -40 -111 2 -5
30 -8 61 -8 55 0 58 1 77 37 38 70 124 66 140 -7 8 -34 -14 -77 -43 -86 -57
-18 -59 -21 -53 -61 7 -39 7 -39 69 -42 34 -2 72 -44 72 -81 0 -43 -39 -80
-84 -80 -27 0 -40 7 -58 31 -23 29 -27 30 -75 23 -73 -9 -78 -14 -58 -60 34
-82 104 -121 203 -111 139 12 230 114 208 232 -8 38 -62 105 -96 117 -12 4
-11 10 7 30 35 38 46 79 33 127 -32 118 -167 166 -290 104z"/>
<path d="M2436 7729 c-83 -33 -151 -61 -153 -63 -5 -4 107 -309 117 -319 4 -5
31 8 60 29 37 27 65 38 99 42 44 4 50 2 74 -28 39 -46 37 -99 -4 -134 -33 -28
-64 -32 -104 -14 -24 11 -29 8 -62 -24 -40 -40 -38 -50 15 -77 80 -40 165 -32
238 24 100 77 102 246 4 328 -62 52 -134 58 -215 17 -21 -11 -39 -19 -40 -17
-11 18 -24 91 -18 97 4 5 46 23 93 41 47 17 86 33 87 34 3 2 -38 125 -40 125
-1 -1 -69 -28 -151 -61z"/>
<path d="M6515 7101 c-59 -21 -143 -62 -202 -99 l-41 -26 56 -81 c30 -44 56
-81 57 -82 1 -1 35 15 76 37 41 22 95 47 120 55 l47 16 -18 72 c-10 40 -21 84
-24 100 -7 31 -6 31 -71 8z"/>
<path d="M7325 6944 c-33 -74 -36 -87 -23 -95 44 -25 146 -109 213 -176 l74
-75 63 35 c109 62 107 51 34 137 -35 41 -86 94 -114 118 -55 46 -191 142 -202
142 -3 0 -23 -39 -45 -86z"/>
<path d="M6750 6774 c-108 -21 -249 -87 -329 -155 -103 -88 -197 -239 -231
-375 -67 -259 31 -561 234 -725 221 -179 523 -209 779 -77 114 58 249 192 301
298 109 225 100 488 -25 695 -82 137 -219 250 -371 307 -74 28 -96 31 -208 34
-69 1 -136 0 -150 -2z m235 -119 c88 -18 215 -81 282 -141 70 -60 144 -174
174 -265 31 -97 34 -264 5 -349 -54 -160 -164 -288 -306 -359 -156 -76 -287
-87 -452 -35 -180 57 -337 222 -389 409 -23 82 -18 257 10 335 72 206 244 362
446 404 91 19 144 19 230 1z"/>
<path d="M6790 6650 c-194 -31 -349 -146 -435 -325 -68 -141 -81 -258 -45
-400 40 -156 148 -295 286 -367 186 -98 377 -96 567 4 68 37 190 161 230 235
36 68 67 191 67 268 0 78 -30 195 -69 273 -39 77 -136 181 -210 226 -114 70
-272 104 -391 86z m230 -161 c200 -69 327 -284 292 -491 -17 -100 -55 -173
-128 -246 -170 -170 -408 -183 -592 -31 -64 53 -106 117 -138 210 -72 213 24
438 230 539 107 53 220 59 336 19z"/>
<path d="M6813 6500 c-251 -36 -427 -299 -358 -535 42 -144 119 -240 243 -298
63 -30 74 -32 177 -32 104 0 114 2 176 32 187 92 292 301 246 489 -24 97 -62
166 -122 223 -102 96 -231 139 -362 121z"/>
<path d="M5825 6278 c-26 -118 -31 -254 -14 -372 13 -87 3 -83 129 -41 58 20
65 25 62 46 -3 28 -3 259 1 308 l2 34 -80 23 c-98 29 -94 29 -100 2z"/>
<path d="M7746 5899 c-3 -8 -13 -41 -22 -74 -17 -60 -66 -169 -107 -234 l-21
-35 74 -68 c88 -82 85 -83 159 62 42 81 111 284 111 325 0 8 -27 15 -72 19
-40 4 -83 10 -95 13 -14 3 -25 0 -27 -8z"/>
<path d="M6330 5260 c-33 -39 -60 -76 -60 -83 0 -25 160 -110 266 -142 l42
-12 21 88 c12 48 21 94 21 102 0 8 -21 22 -47 32 -27 10 -75 33 -109 51 -33
19 -64 34 -67 34 -3 0 -33 -32 -67 -70z"/>
<path d="M7005 5199 c-22 -4 -81 -8 -131 -8 l-91 -1 -11 -77 c-21 -136 -23
-132 56 -135 74 -3 240 7 270 16 19 6 19 10 -8 108 -15 56 -31 103 -36 104 -5
1 -27 -2 -49 -7z"/>
<path d="M8218 4176 c-175 -52 -310 -189 -364 -371 -24 -82 -24 -258 0 -339
29 -98 75 -177 143 -247 108 -112 230 -163 391 -162 108 1 176 15 252 53 114
57 200 158 246 287 19 55 24 88 24 175 0 103 -1 108 -22 113 -13 3 -131 4
-263 3 l-240 -3 0 -95 0 -95 135 -5 c153 -6 152 -5 106 -84 -50 -86 -172 -138
-270 -116 -113 25 -180 76 -225 170 -23 49 -26 67 -26 165 0 94 3 117 23 160
49 106 148 174 265 183 60 4 74 2 130 -26 39 -19 76 -47 96 -72 l32 -40 107 0
c59 0 113 4 121 9 31 20 -25 146 -100 220 -51 52 -138 101 -218 125 -83 24
-247 21 -343 -8z"/>
<path d="M1240 4170 c-13 -8 -15 -78 -18 -512 -2 -277 0 -517 3 -534 3 -20 14
-35 31 -42 33 -16 153 -15 184 1 25 12 25 13 30 182 l5 170 135 6 c164 7 224
27 304 100 71 65 106 139 113 240 7 97 -9 163 -57 237 -44 68 -105 110 -205
141 -59 19 -93 21 -289 21 -122 0 -228 -5 -236 -10z m465 -231 c62 -30 93
-120 66 -192 -18 -48 -77 -81 -155 -88 -39 -4 -87 -5 -108 -2 l-36 5 -1 139
c-1 77 1 144 5 151 9 15 191 5 229 -13z"/>
<path d="M2180 4170 c-13 -8 -15 -80 -17 -535 -3 -515 -2 -526 18 -546 19 -19
31 -20 299 -19 154 1 292 5 307 9 l28 7 0 105 0 104 -200 5 -200 5 -3 424 c-1
293 -6 428 -13 438 -14 15 -195 18 -219 3z"/>
<path d="M3307 4162 c-24 -26 -377 -1011 -377 -1051 0 -33 35 -44 132 -39 61
3 93 9 103 19 9 8 31 58 49 110 l34 94 185 3 185 2 16 -42 c9 -24 26 -72 38
-108 l23 -65 78 -9 c47 -6 97 -6 125 0 44 8 47 11 46 39 -1 27 -129 390 -303
864 -34 91 -61 166 -61 167 0 1 -7 10 -16 18 -12 13 -39 16 -128 16 -96 0
-115 -3 -129 -18z m248 -644 c7 -17 -3 -18 -119 -18 -69 0 -126 4 -126 8 0 7
102 317 116 352 3 8 32 -60 64 -155 32 -93 61 -178 65 -187z"/>
<path d="M4078 4169 c-17 -9 -18 -46 -18 -537 0 -315 4 -533 10 -542 7 -12 31
-15 107 -15 54 0 106 3 116 7 16 7 17 33 17 338 0 200 4 329 9 325 5 -3 29
-38 53 -78 144 -238 343 -555 360 -572 16 -17 32 -20 117 -20 68 0 103 4 114
14 15 12 17 62 17 542 0 512 -1 529 -19 539 -25 13 -201 13 -221 0 -13 -8 -15
-59 -18 -336 l-3 -326 -201 324 c-111 177 -209 328 -217 335 -20 15 -198 17
-223 2z"/>
<path d="M5191 4171 c-13 -8 -15 -89 -14 -541 1 -383 4 -535 13 -544 17 -17
202 -15 223 3 15 12 17 52 19 344 l3 331 87 -145 c211 -348 326 -525 349 -537
28 -15 184 -8 206 9 18 16 19 1059 1 1077 -19 19 -202 16 -222 -3 -13 -13 -15
-62 -16 -327 0 -172 -2 -314 -4 -316 -2 -2 -17 18 -32 45 -62 105 -355 568
-374 590 -18 21 -27 23 -122 23 -57 0 -109 -4 -117 -9z"/>
<path d="M6328 4169 c-17 -9 -18 -46 -18 -545 0 -500 1 -535 18 -542 30 -12
201 -7 214 6 10 10 13 132 13 543 0 460 -2 531 -15 539 -20 13 -190 12 -212
-1z"/>
<path d="M6780 4165 c-17 -21 -20 -1059 -2 -1077 18 -18 204 -17 225 1 15 12
17 48 17 340 l0 326 23 -35 c13 -19 47 -73 75 -120 28 -47 111 -181 184 -299
152 -245 141 -237 282 -229 62 4 82 9 92 23 11 15 14 117 14 532 0 608 13 553
-131 553 -142 0 -130 32 -129 -336 1 -174 0 -317 -2 -319 -4 -4 -29 36 -263
410 -76 121 -145 226 -153 233 -24 18 -216 17 -232 -3z"/>
<path d="M3600 2754 c-44 -9 -114 -34 -170 -61 -79 -38 -108 -59 -181 -132
-73 -73 -94 -102 -132 -181 -182 -377 -37 -840 317 -1013 113 -55 169 -68 307
-74 158 -7 246 10 379 74 82 39 107 58 185 137 143 145 203 283 212 491 10
225 -49 386 -200 552 -167 182 -438 261 -717 207z m357 -315 c113 -54 202
-177 229 -316 40 -204 -53 -413 -221 -495 -111 -55 -217 -57 -352 -7 -63 24
-152 102 -190 167 -83 140 -82 355 1 497 63 107 179 181 302 193 89 10 154 -1
231 -39z"/>
<path d="M1866 2728 c-14 -20 -16 -95 -16 -698 0 -568 2 -679 14 -696 13 -17
27 -19 145 -19 93 0 134 4 143 13 10 10 14 69 16 232 l3 220 137 0 c80 0 165
6 204 15 195 41 335 171 383 355 23 86 16 223 -15 301 -46 119 -155 220 -293
270 -59 22 -78 23 -383 27 l-322 3 -16 -23z m631 -291 c58 -31 87 -81 91 -157
5 -81 -12 -123 -68 -174 -48 -44 -113 -58 -249 -54 l-102 3 0 188 c0 103 1
194 1 203 0 24 280 17 327 -9z"/>
<path d="M4726 2728 c-14 -20 -16 -103 -16 -704 0 -622 1 -683 17 -695 12 -10
50 -14 143 -14 93 0 131 4 143 14 15 12 17 40 17 225 l0 211 51 63 51 62 67
-102 c37 -57 111 -175 165 -263 55 -88 112 -173 128 -188 l30 -28 131 2 c147
2 181 8 185 31 4 19 -15 48 -275 440 l-204 306 129 164 c372 472 362 459 342
483 -10 12 -41 15 -174 15 l-162 0 -26 -27 c-14 -16 -103 -138 -199 -273 -95
-135 -188 -261 -206 -280 l-32 -35 -1 292 c0 251 -2 294 -16 307 -12 13 -40
16 -144 16 -122 0 -130 -1 -144 -22z"/>
<path d="M6038 2739 c-17 -9 -18 -54 -18 -703 0 -633 1 -695 17 -707 13 -11
95 -15 417 -17 221 -1 411 0 423 3 33 8 46 64 42 179 -3 83 -7 100 -23 112
-16 11 -73 14 -293 14 l-273 0 0 135 0 135 249 0 c218 0 250 2 255 16 3 9 6
67 6 129 0 154 18 145 -278 145 l-233 0 3 138 3 137 271 0 c214 0 275 3 288
14 13 11 16 35 16 135 0 82 -4 126 -12 134 -16 16 -834 17 -860 1z"/>
<path d="M7150 2731 c-6 -13 -10 -250 -10 -698 0 -570 2 -682 14 -699 12 -16
29 -19 121 -22 195 -7 185 -21 185 279 l0 240 78 -3 77 -3 98 -185 c153 -288
166 -310 193 -321 29 -10 256 -11 294 0 14 4 26 13 28 21 1 8 -65 127 -148
263 -82 137 -150 252 -150 255 1 4 23 18 51 31 107 53 199 190 217 323 34 260
-115 468 -373 523 -53 11 -144 15 -367 15 -284 0 -298 -1 -308 -19z m612 -281
c79 -22 128 -89 128 -175 0 -74 -36 -132 -105 -168 -33 -17 -64 -21 -182 -25
l-143 -5 0 192 0 191 133 0 c72 0 149 -5 169 -10z"/>
</g>
</svg>
